<?xml version="1.0" encoding="utf-8"?>
<!-- Generator: Adobe Illustrator 14.0.0, SVG Export Plug-In . SVG Version: 6.00 Build 43363)  -->
<!DOCTYPE svg PUBLIC "-//W3C//DTD SVG 1.1//EN" "http://www.w3.org/Graphics/SVG/1.1/DTD/svg11.dtd">
<svg version="1.1" id="Layer_1" xmlns="http://www.w3.org/2000/svg" xmlns:xlink="http://www.w3.org/1999/xlink" x="0px" y="0px"
	 width="612px" height="792px" viewBox="0 0 612 792" enable-background="new 0 0 612 792" xml:space="preserve">
<g>
	<path fill="#FFFFFF" d="M550.8,320.7c0-138.8-112-250.8-250.6-250.8c-138.6,0-250.8,112-250.8,250.8l0,0v195.2c0,4.6,3.4,8,8,8
		h485.2c4.601,0,8-3.4,8-8L550.8,320.7L550.8,320.7z"/>
	<path fill="#68298C" d="M499.4,311.9c-8.601-21.4-81.4-5.2-183.801,49.2c-99.399,53.2-158.2,115-149,133.4
		c9.2,19.6,111.4,5.8,193.6-39.8C471.8,393.5,510.4,337.9,499.4,311.9"/>
	<path fill="#FFFFFF" d="M260.2,465.7c-17.4,0.6-33.6-6.4-45-18c23.2-23.2,57.8-49.2,100-71.6c4,8,6.399,16.8,6.399,26
		C322,436.1,295,464.5,260.2,465.7"/>
	<path fill="#68298C" d="M103.2,511.3c4.6,4.601,8.6,8,20.2,12.2l2.8,1.2H58c-4.6,0-8-3.4-8-8V321.5l0,0c0-83.8,41-158.2,104.6-204
		l0,0l-2.8,3.4c-7,8.6-5.8,16.8-1.8,27.8c2.8,7.6-5.2,15.6-9.8,20.2c-18,20.2-36.4,46.8-38.2,93.6c-1.8,42.8,11,80.8,15,101
		c4.6,21.4,5.2,28.4,5.8,32.4c16.2-13.8,33.6-27.2,50.8-39.2c28.4-18.4,50.8-32.4,71-42.8c45-24.2,56.6-21.4,20.8-0.6
		c-35.2,20.8-69.8,44.4-93,65.8C80,460.5,94,501.5,103.2,511.3"/>
	<path fill="#68298C" d="M550.8,516.5c0,4.6-3.399,8-8,8H225.6c0,0,4-1.2,4.6-1.2c41.6-8.6,90.2-26,139.8-53.8
		c98.2-50.8,162.4-116.2,179.6-164l0.601-2.4c0,0,0,0.6,0,2.4c0,4,0.6,9.8,0.6,15V516.5"/>
	<path fill="#9E7FBA" d="M191,95.3L191,95.3c32.8-16.2,70.4-25.4,109.8-25.4c116.2,0,213.8,78.6,242,186c0,0-3.399-3.4-12.8-7.6
		c-6.4-2.8-15-5.2-27.2-7.6c-15.6-2.8-31.2-3.4-49.2-13.2c-31.8-17.4-74.6-92.4-142.6-112c-32.4-9.2-57.8-5.8-68.2-4
		c-5.8,1.2-16.8,2.4-20.8-2.8c-8-10.4-14.4-16.8-26.6-14.4C193.8,94.1,191,95.3,191,95.3"/>
</g>
<g>
	<polygon fill="#010101" points="70.2,719.7 103.8,719.7 103.8,611.1 145.8,611.1 145.8,582.3 28,582.3 28,611.1 70.2,611.1 	"/>
	<path fill="#010101" d="M155.8,719.7l7.6-20.2h55.4l7.6,20.2h37l-56-137.4h-28L121,719.7H155.8L155.8,719.7z M192.2,623.3
		L209,671.9h-34.8L192.2,623.3z"/>
	<path fill="#010101" d="M373,722.1c27.2,0,45-10.399,57.8-24.8L403,676.5c-5.8,8-15.6,14.4-30.6,14.4
		c-22,0-34.601-16.801-34.601-39.801s12.8-40.399,35.8-40.399c13.2,0,22,7,27.801,15L428.6,606.1c-12.199-15.6-28.8-26-54.8-26
		c-46.2,0-71,31.801-71,71C302.4,690.3,326.8,722.1,373,722.1z"/>
	<path fill="#010101" d="M503,722.1c43.4,0,69.8-31.8,69.8-71c0-39.199-26.6-71.199-69.8-71.199c-44,0-70.4,31.8-70.4,71
		C432.6,690.1,459,722.1,503,722.1z M503,610.7c22,0,35.2,17.399,35.2,40.399S525.4,690.9,503,690.9c-22,0-35.2-16.801-35.2-39.801
		C467.6,627.3,480.4,610.7,503,610.7z"/>
	<g>
		<circle fill="#010101" cx="287.4" cy="704.7" r="16.2"/>
	</g>
</g>
</svg>
